<?xml version="1.0" ?><svg id="icons" viewBox="0 0 340 340" xmlns="http://www.w3.org/2000/svg"><title/><path d="M40.35,332.394A26.983,26.983,0,0,0,57.537,284.61a4,4,0,1,0-5.1,6.165,18.983,18.983,0,1,1-12.088-4.346,4,4,0,0,0,4-4V226.345a4,4,0,0,0-8,0v52.382a26.983,26.983,0,0,0,4,53.667Z"/><path d="M40.35,213.792a20.259,20.259,0,0,0,18.082-11.183l172.025,56.578a4,4,0,0,0,2.5-7.6L60.533,194.878c.029-.444.068-.886.068-1.337A20.252,20.252,0,1,0,40.35,213.792Zm0-32.5A12.251,12.251,0,1,1,28.1,193.541,12.265,12.265,0,0,1,40.35,181.29Z"/><path d="M264.767,283.223a18.708,18.708,0,1,0-7.092-36.009l-72.027-91.8a4,4,0,0,0-6.294,4.939L251.1,251.788a18.677,18.677,0,0,0,13.672,31.435Zm0-29.415a10.708,10.708,0,1,1-10.708,10.708A10.721,10.721,0,0,1,264.767,253.808Z"/><path d="M163.373,147.7a17.563,17.563,0,0,0,17.5-20.162l52.277-20.246a4,4,0,1,0-2.889-7.46l-52.258,20.239A17.69,17.69,0,1,0,163.373,147.7Zm0-27.388A9.694,9.694,0,1,1,153.68,130,9.706,9.706,0,0,1,163.373,120.307Z"/><path d="M266.463,105.137c13.115,0,23.39-6.812,23.39-15.507,0-7.789-8.246-14.062-19.39-15.286v-57.4c3.824-1.124,11.488-2.639,17.617.8A36.647,36.647,0,0,0,307.259,22.7a35.783,35.783,0,0,0,11.374-1.819V48.812c-3.512,2.18-7.391,2.511-11.673,2.671a28.745,28.745,0,0,1-14.97-3.944,24.1,24.1,0,0,0-6.321-2.427,4,4,0,1,0-1.814,7.792,16.085,16.085,0,0,1,4.225,1.615A37.1,37.1,0,0,0,306.1,59.5c.388,0,.773-.007,1.159-.021,4.62-.173,11.6-.433,17.884-5.494a4,4,0,0,0,1.49-3.115V14.086a4,4,0,0,0-6.51-3.115c-3.9,3.14-8.266,3.547-13.163,3.73a28.683,28.683,0,0,1-14.97-3.944c-12.048-6.749-26.511-.6-27.122-.332a4,4,0,0,0-2.4,3.668V96.845c-6.723-.965-11.39-4.234-11.39-7.215,0-1.745,1.619-3.217,2.583-3.939a4,4,0,0,0-4.8-6.4c-3.731,2.8-5.786,6.468-5.786,10.342C243.073,98.325,253.348,105.137,266.463,105.137Zm4-22.723c6.724.966,11.39,4.235,11.39,7.216s-4.666,6.25-11.39,7.215Z"/></svg>