<?xml version="1.0" ?><svg id="icon" viewBox="0 0 340 340" xmlns="http://www.w3.org/2000/svg"><title/><path d="M51.68,125.155a36.93,36.93,0,0,0,14.71,6.73l1.244,27.42a18.313,18.313,0,0,0-4.866.722,16.294,16.294,0,0,0-2.906,1.16,12.184,12.184,0,0,0-6.5,10.9v19.491a14.18,14.18,0,0,0,14.165,14.164H69.74l.884,19.493a9.287,9.287,0,0,0,9.24,8.778c.124,0,.248,0,.373-.007a9.279,9.279,0,0,0,8.88-9.024l.43-19.24h3.325a11.839,11.839,0,0,0,3.812,8.1c14.2,13.086,33.087,26.8,43.085,33.809a12.183,12.183,0,0,0,13.567.269V277.07a16.189,16.189,0,0,0,5.629,12.246c.684.591,1.371,1.152,2.058,1.7l-1.5,39.018a4,4,0,0,0,3.844,4.15q.078,0,.156,0a4,4,0,0,0,3.995-3.846l1.306-34.05a57.728,57.728,0,0,0,28.242,7.569,36.64,36.64,0,0,0,5.456-.347,4,4,0,0,0,3.335-4.408c-.019-.163-.037-.33-.056-.493q3.495.137,7.177.142,4.866,0,10.03-.238a4,4,0,1,0-.369-7.991c-6.249.289-12.172.3-17.674.046-.247-2.612-.481-5.314-.7-8.087q6.567.324,12.877.325,7.376,0,14.319-.453l1.033,10.718A10.716,10.716,0,0,0,243.2,302.8h14.171a10.743,10.743,0,0,0,5.836-1.721l1.042,29.249a4,4,0,0,0,4,3.857l.145,0a4,4,0,0,0,3.855-4.14l-1.373-38.533c.788.817,1.58,1.614,2.379,2.377a13.765,13.765,0,0,0,9.523,3.825,14.082,14.082,0,0,0,1.649-.1,13.532,13.532,0,0,0,9.819-6.13c4.376-6.811,8.116-18.571,1.976-36.444q.9-.763,1.811-1.54a17.99,17.99,0,0,0,6.184-15.973A413.333,413.333,0,0,0,280.3,143.537a22.439,22.439,0,0,0-5.932-8.524c-6-5.372-17.062-14.635-27.324-19.887.058-.36.129-.715.168-1.08a177.235,177.235,0,0,0,.839-27.623c1.521.172,3.059.317,4.62.42q1.3.087,2.6.087a39.062,39.062,0,0,0,12.208-1.961,58.076,58.076,0,0,0,18.444-9.73,14.849,14.849,0,0,0,4.559-16.657A15.026,15.026,0,0,0,276.2,48.508H257.735a21.133,21.133,0,0,1-3.446-1.774,16.928,16.928,0,0,1-7.657-14.25V13.324a7.456,7.456,0,0,0-2.248-5.361,7.54,7.54,0,0,0-5.39-2.147A274.983,274.983,0,0,0,194.55,10.25,15.253,15.253,0,0,0,184.4,17.367a162.382,162.382,0,0,0-14.557,31.141H158.573a18.039,18.039,0,0,0-10.688,3.431,31.854,31.854,0,0,0-2.6,2.109,11.718,11.718,0,0,0,6.725,20.311c3.847.394,7.7.709,11.447.938.083.005.166.008.248.008a4,4,0,0,0,.24-7.993c-3.64-.222-7.382-.529-11.12-.911a3.7,3.7,0,0,1-3.181-2.577,3.591,3.591,0,0,1,1-3.84,23.772,23.772,0,0,1,1.937-1.575,10.1,10.1,0,0,1,5.984-1.9h18.4a143.632,143.632,0,0,1,13.482,6.89c1.957,1.139,3.908,2.377,5.8,3.68.957.657,2.313,1.555,4.027,2.606A50.113,50.113,0,0,0,191.4,84.462a14.911,14.911,0,0,0-8.432-.972,112.933,112.933,0,0,1-1.293-18.182,4,4,0,1,0-8-.111,122.776,122.776,0,0,0,1.789,22.059c-.209.19-.417.38-.618.584a15.284,15.284,0,0,0-3.067,17.17l.15.324a15.222,15.222,0,0,0,13.211,8.893c-2.748,2.082-5.346,4.22-7.787,6.349-.046.038-.09.078-.134.118a173.93,173.93,0,0,0-17.866,18.155,45.145,45.145,0,0,0-6.788,10.825c-9.306,20.918-19.42,48.039-19.521,48.311-.012.032-.014.065-.025.1s-.031.062-.041.095l-3.371,10.684a4,4,0,1,0,7.63,2.406l3.341-10.59c.671-1.8,10.369-27.685,19.3-47.751a37.116,37.116,0,0,1,5.583-8.908c.469-.555,1-1.168,1.557-1.806a36.768,36.768,0,0,0-.759,10.467,4,4,0,0,0,4.075,3.55c.9-.011,8.725.049,9.608,9.289a4,4,0,0,0,3.977,3.62c.128,0,.256-.007.386-.019a4,4,0,0,0,3.6-4.363c-1.011-10.575-8.024-14.84-13.681-16.1a41.767,41.767,0,0,1,8.63-22.269c1.791-1.556,3.676-3.111,5.639-4.643-2.911,6.521-5.03,16.98,1.713,29.46a15.418,15.418,0,0,1,1.928,7.2c.1,21.691.782,94.033,5.325,137.46a49.792,49.792,0,0,1-29.994-10h0c-1.09-.806-2.18-1.67-3.265-2.608a8.192,8.192,0,0,1-2.86-6.193V206.333a4,4,0,1,0-8,0v29.184l-3.175,4.548a4.158,4.158,0,0,1-5.8,1.031c-9.834-6.9-28.4-20.369-42.256-33.139a3.9,3.9,0,0,1-1.247-3.127l1.163-18.033v0l.612-9.5.026-.4,19.848,16.073a4,4,0,0,0,5.035-6.217l-25.259-20.455c-1.386-2.309-5.6-7.777-14.945-8.887a26.435,26.435,0,0,0-11.779.083l-1.117-24.623c.394.01.774.016,1.135.016a33.446,33.446,0,0,0,4.443-.265c1.085-.1,2.137-.234,3.169-.379l-.343,15.323a4,4,0,0,0,3.91,4.088h.091a4,4,0,0,0,4-3.911l.384-17.172c22.087-6.21,28.793-23,30.805-33.367a9.386,9.386,0,0,0-10.871-11.023l-.127.021a3.829,3.829,0,0,1-4.018-1.97c-1.988-3.725-1.974-8.381-1.788-10.824a52.96,52.96,0,0,0-.763-14.686,56.379,56.379,0,0,0-12.672-26,11.919,11.919,0,0,0-20.759,9.712A42.205,42.205,0,0,1,69.37,63.67,11.7,11.7,0,0,1,58.3,71.5a10.548,10.548,0,0,1-5.733-1.944,9.712,9.712,0,0,0-14.786,5.006,47.842,47.842,0,0,0-1.977,18.008C37.368,107.292,42.708,118.255,51.68,125.155Zm154.337,4.016a66.268,66.268,0,0,0,19.838,3.459c.21.006.417.009.626.009.086,0,.169-.011.254-.012,0,3.771-1.061,8.718-4.778,14.536a20.05,20.05,0,0,0-3.125,10.963c.007,1.1,0,2.278,0,3.538,0,.261,0,.535,0,.8a19.01,19.01,0,0,1-18.686-.775c-.008-1.209-.013-2.322-.018-3.322a23.446,23.446,0,0,0-2.89-10.968c-5.438-10.064-3.593-18.157-1.152-23.114A31.286,31.286,0,0,0,206.017,129.171Zm-5.8,41.476a26.838,26.838,0,0,0,18.695.443,169.435,169.435,0,0,0,3.943,33.529,170.159,170.159,0,0,1-22.476-20.613C200.311,179.117,200.259,174.623,200.22,170.647ZM257.373,294.8H243.2a2.748,2.748,0,0,1-2.746-2.5l-1.249-12.969a4,4,0,0,0-1.881-3.021l-1.4-.863a2.934,2.934,0,0,1-1.331-1.864,2.991,2.991,0,0,1,.409-2.3,76.69,76.69,0,0,1,8-10.13c4.111,2.286,12.448,7.457,18.5,14.735a91.376,91.376,0,0,1-1.414,16.626A2.746,2.746,0,0,1,257.373,294.8Zm30.139-7.64a5.483,5.483,0,0,1-4.035,2.51,5.794,5.794,0,0,1-4.7-1.569,84.9,84.9,0,0,1-9.25-10.571q0-.559,0-1.119c3.227-2.432,10.821-8.235,20.056-15.83C293.363,273.739,290.691,282.212,287.512,287.159ZM269.029,140.974a14.388,14.388,0,0,1,3.813,5.466,404.819,404.819,0,0,1,23.434,92.086,10.012,10.012,0,0,1-3.442,8.89c-11.49,9.816-21.845,17.836-26.746,21.561A76.4,76.4,0,0,0,248.714,255.2l.888-.932c.924-.881,13.5-12.762,26.361-19.87a4,4,0,0,0-3.87-7c-.722.4-1.441.814-2.158,1.237-.047-11.462-.671-34.229-4.405-55a4,4,0,0,0-7.874,1.416c4.289,23.849,4.336,51.27,4.257,58.8A170.929,170.929,0,0,0,244,248.556c-.021.021-.036.046-.057.067s-.044.035-.064.056l-4.5,4.729a86.255,86.255,0,0,0-11.091,13.547,10.921,10.921,0,0,0-1.62,7.644c-7.316.313-15.014.261-23-.163-1.744-25.2-2.632-54.836-3.084-78.631A163.3,163.3,0,0,0,226.1,216.666a150.872,150.872,0,0,0,9.58,23.444,4,4,0,1,0,7.127-3.634,144.155,144.155,0,0,1-9.424-23.222,4.02,4.02,0,0,0-.121-.4c-6.449-21.231-6.437-39.191-6.423-51.181,0-1.28,0-2.481,0-3.6a12.064,12.064,0,0,1,1.866-6.6c5.233-8.191,6.316-15.3,5.985-20.554a21.086,21.086,0,0,0,9.545-8.238C253.861,127.816,264.544,136.959,269.029,140.974ZM191.256,21.488a7.245,7.245,0,0,1,4.816-3.385,266.165,266.165,0,0,1,42.56-4.278V32.484a24.974,24.974,0,0,0,5.7,16.024H178.3A157.082,157.082,0,0,1,191.256,21.488Zm3.27,35.02H276.2a7.035,7.035,0,0,1,6.746,4.775,6.864,6.864,0,0,1-2.114,7.781,50.094,50.094,0,0,1-15.852,8.3A31.1,31.1,0,0,1,253.2,78.861c-26.366-1.748-46.778-14.507-52.4-18.376C198.749,59.08,196.641,57.742,194.526,56.508Zm-15.368,45.4-.1-.219a7.262,7.262,0,0,1,1.49-8.239,6.853,6.853,0,0,1,7.863-1.566,12.224,12.224,0,0,1,2.6,1.525,4,4,0,0,0,6.441-1.924,43.041,43.041,0,0,1,9.97-17.77A120.613,120.613,0,0,0,239.96,85.193c.042.658.081,1.315.114,1.967l-1.972.3a4,4,0,1,0,1.209,7.908l.947-.145a175.18,175.18,0,0,1-1,17.967A12.74,12.74,0,0,1,226.1,124.633a58.594,58.594,0,0,1-17.346-2.981c-.1-.038-.2-.072-.3-.1-5.054-1.521-8.076-3.718-9.885-5.857a3.913,3.913,0,0,0-.369-.458,11.725,11.725,0,0,1-1.514-2.566,3.972,3.972,0,0,0-.312-.827,8.51,8.51,0,0,1-.475-2.874,4,4,0,0,0-5.687-3.922,11.693,11.693,0,0,1-4.45,1.186A7.159,7.159,0,0,1,179.158,101.909ZM67.525,197.741a6.172,6.172,0,0,1-6.165-6.164V172.086a4.271,4.271,0,0,1,2.192-3.8,8.3,8.3,0,0,1,1.48-.585,9.7,9.7,0,0,1,.994-.223c-.058.289-.122.575-.165.874a4.019,4.019,0,0,0-.039.559v14.845a4,4,0,0,0,3.1,3.889l.458,10.1Zm18.347-6.585a4.029,4.029,0,0,0-4.088,3.91l-.665,29.724a1.254,1.254,0,0,1-2.5.057L76.907,187.2a12.906,12.906,0,0,0,5.667-3.531,19.328,19.328,0,0,0,11.215,6.477l-.49,7.6H89.726l.056-2.5A4,4,0,0,0,85.872,191.156Zm-.157-25.92a4.018,4.018,0,0,0,.509.09c5.421.594,7.948,3.257,8.872,4.548l-.787,12.194a12.033,12.033,0,0,1-8.266-8.391,4,4,0,0,0-3.889-3.069q-.091,0-.183,0a4,4,0,0,0-3.777,3.422l-.237,1.637a4.8,4.8,0,0,1-4.135,4.049v-10.5a4.761,4.761,0,0,1,1.2-2.595l.015-.015a4.237,4.237,0,0,1,.647-.545C78.525,164.123,84.025,164.837,85.715,165.236ZM45.408,76.982a1.633,1.633,0,0,1,1.053-1.066,1.8,1.8,0,0,1,.579-.1,1.7,1.7,0,0,1,.978.313A18.409,18.409,0,0,0,58.05,79.493a19.489,19.489,0,0,0,18.842-13.1,50.194,50.194,0,0,0,2.039-25.258,3.92,3.92,0,0,1,6.814-3.187A48.478,48.478,0,0,1,96.627,60.305a45.064,45.064,0,0,1,.625,12.489c-.307,4.043-.086,9.962,2.709,15.2a11.821,11.821,0,0,0,12.4,6.092l.185-.032a1.383,1.383,0,0,1,1.27.4,1.337,1.337,0,0,1,.363,1.223c-2.065,10.646-8.628,23.5-27.585,27.808l-.028.006a58.04,58.04,0,0,1-7.4,1.171c-.08.008-.159.017-.238.03a31.574,31.574,0,0,1-8.006-.115c-.051-.009-.1-.013-.155-.02a29.887,29.887,0,0,1-14.213-5.738c-7.169-5.513-11.473-14.628-12.8-27.119A39.734,39.734,0,0,1,45.408,76.982Z"/><path d="M64.4,112.772h0a14.451,14.451,0,0,0,11.67,6.28h4.2a13.7,13.7,0,0,0,10.34-4.7,17.491,17.491,0,0,0,3.843-7.509,13.9,13.9,0,0,0-3.43-13.161,9.415,9.415,0,0,0-9.249-2.525,11.966,11.966,0,0,1-2.549.389,8.714,8.714,0,0,1-4.692-1.131,8.56,8.56,0,0,0-9.592.888c-3.769,2.96-5.461,8.621-4.115,13.765A22.988,22.988,0,0,0,64.4,112.772Zm5.486-15.181c.452-.357.626-.261.848-.141a16.719,16.719,0,0,0,8.912,2.081,19.811,19.811,0,0,0,4.277-.672c.183-.05.743-.207,1.526.555a5.845,5.845,0,0,1,1.243,5.5,9.6,9.6,0,0,1-2.056,4.122,5.711,5.711,0,0,1-4.363,2.022h-4.2a6.48,6.48,0,0,1-5.193-2.976,15.017,15.017,0,0,1-2.31-5.039A5.51,5.51,0,0,1,69.889,97.591Z"/><path d="M55.337,43.743a4,4,0,0,0,4-4V38.5a4,4,0,0,0-8,0v1.244A4,4,0,0,0,55.337,43.743Z"/><path d="M118.209,70.5a4,4,0,0,0,4-4V65.255a4,4,0,0,0-8,0V66.5A4,4,0,0,0,118.209,70.5Z"/><path d="M219.215,94.635l3.012.46a4.067,4.067,0,0,0,.609.046,4,4,0,0,0,.6-7.954l-3.012-.46a4,4,0,0,0-1.208,7.908Z"/><path d="M240.092,153.907a11.421,11.421,0,0,0-8.144,6.246,16.5,16.5,0,0,0-1.218,9.084,3.981,3.981,0,0,0,3.93,3.309,4.155,4.155,0,0,0,.653-.053,4.016,4.016,0,0,0,3.308-4.575,8.529,8.529,0,0,1,.555-4.335,3.345,3.345,0,0,1,2.439-1.823,3.272,3.272,0,0,1,2.874.754,4.285,4.285,0,0,1,1.116,1.809,4,4,0,0,0,7.265.653c.343-.609,8.283-15.138-2.516-34.088a4,4,0,0,0-6.951,3.961c4.775,8.378,5.032,15.5,4.307,20.2A11.274,11.274,0,0,0,240.092,153.907Z"/><path d="M214.9,334.184a4,4,0,0,0,4-4v-2.925a19.435,19.435,0,0,0-6.336-14.339l-3.789-3.451a4,4,0,0,0-5.387,5.915l3.789,3.451a11.415,11.415,0,0,1,3.723,8.424v2.925A4,4,0,0,0,214.9,334.184Z"/></svg>