<?xml version="1.0" ?><svg id="Outline" viewBox="0 0 340 340" xmlns="http://www.w3.org/2000/svg"><title/><path d="M228.484,154.653a4,4,0,0,0,5.2-2.232L277.047,43.8a25.494,25.494,0,0,0-47.355-18.9L202.022,94.2v0h0l-27.032,67.711H161.53l6.075-93.266,7.651.5a4,4,0,0,0,.519-7.984l-7.649-.5L170.645,22a8.553,8.553,0,0,1,17.07,1.111l-2.779,42.663-3.288,50.466a4,4,0,0,0,3.731,4.252c.089.005.177.008.265.008a4,4,0,0,0,3.987-3.74l3.288-50.465L195.7,23.63a16.553,16.553,0,1,0-33.036-2.152l-2.78,42.663h0l-6.369,97.777H116.591L96.014,111.991l9.946-4.1,18.212,44.189a4,4,0,1,0,7.4-3.049l-18.212-44.189,2.192-.9a4,4,0,0,0,2.174-5.223L94.458,42.274A19.749,19.749,0,0,0,57.94,57.325L69.5,85.366a29.583,29.583,0,0,1,1.552,17.68,37.549,37.549,0,0,0,1.972,22.447l7.21,17.5a4,4,0,1,0,7.4-3.049l-7.211-17.494a29.574,29.574,0,0,1-1.966-15.354l2.753,6.678a4,4,0,0,0,5.222,2.173l2.192-.9,19.32,46.879H93.469a4,4,0,0,0-4,4V175.9a17.313,17.313,0,0,0,13.294,16.809V312.923A21.1,21.1,0,0,0,123.84,334H211.5a21.1,21.1,0,0,0,21.077-21.077V192.706A17.313,17.313,0,0,0,245.869,175.9v-9.979a4,4,0,0,0-4-4H183.6l6.091-15.256,11.935,4.765A4,4,0,1,0,204.6,144l-11.935-4.765,6.171-15.458L206,126.638a4,4,0,0,0,2.967-7.43l-7.174-2.864,6.171-15.458,11.936,4.765a4,4,0,1,0,2.966-7.429l-11.936-4.765L217.105,78l7.174,2.864a4,4,0,0,0,2.966-7.43l-7.174-2.864,6.171-15.458,11.936,4.765a4,4,0,0,0,2.966-7.43l-11.936-4.765,7.914-19.824a17.494,17.494,0,1,1,32.5,12.973L226.252,149.456A4,4,0,0,0,228.484,154.653ZM76.893,82.315v0L70.125,65.892h0L65.337,54.276a11.749,11.749,0,1,1,21.725-8.953L108.8,98.068l-2.187.9-.005,0-17.342,7.147h0l-2.19.9ZM237.869,175.9a9.3,9.3,0,0,1-9.294,9.294H216.411a4,4,0,0,0,0,8h8.164V312.923A13.092,13.092,0,0,1,211.5,326H123.84a13.091,13.091,0,0,1-13.077-13.077V193.191H170a4,4,0,0,0,0-8H106.763a9.3,9.3,0,0,1-9.294-9.294v-5.979h140.4Z"/><path d="M191.733,193.191h3.5a4,4,0,0,0,0-8h-3.5a4,4,0,0,0,0,8Z"/><path d="M249.94,36.83a3.605,3.605,0,0,0,.5.61,4,4,0,0,0,5.65,0,4.161,4.161,0,0,0,.5-.61,4.579,4.579,0,0,0,.37-.69,4.659,4.659,0,0,0,.23-.75,4.114,4.114,0,0,0,.07-.78,4,4,0,0,0-8,0,4.129,4.129,0,0,0,.08.78,4.033,4.033,0,0,0,.6,1.44Z"/></svg>